<?xml version="1.0" encoding="UTF-8" standalone="no"?>
<!-- Created with Inkscape (http://www.inkscape.org/) -->

<svg
   xmlns:dc="http://purl.org/dc/elements/1.1/"
   xmlns:cc="http://creativecommons.org/ns#"
   xmlns:rdf="http://www.w3.org/1999/02/22-rdf-syntax-ns#"
   xmlns:svg="http://www.w3.org/2000/svg"
   xmlns="http://www.w3.org/2000/svg"
   xmlns:sodipodi="http://sodipodi.sourceforge.net/DTD/sodipodi-0.dtd"
   xmlns:inkscape="http://www.inkscape.org/namespaces/inkscape"
   width="112.88888mm"
   height="33.346481mm"
   viewBox="0 0 399.99991 118.15681"
   id="svg2"
   version="1.1"
   inkscape:version="0.91 r13725"
   sodipodi:docname="carbody.svg">
  <defs
     id="defs4" />
  <sodipodi:namedview
     id="base"
     pagecolor="#ffffff"
     bordercolor="#666666"
     borderopacity="1.0"
     inkscape:pageopacity="0.0"
     inkscape:pageshadow="2"
     inkscape:zoom="1.979899"
     inkscape:cx="178.15002"
     inkscape:cy="86.899223"
     inkscape:document-units="px"
     inkscape:current-layer="layer1"
     showgrid="true"
     fit-margin-top="0"
     fit-margin-left="0"
     fit-margin-right="0"
     fit-margin-bottom="0"
     inkscape:window-width="1440"
     inkscape:window-height="800"
     inkscape:window-x="0"
     inkscape:window-y="1"
     inkscape:window-maximized="1"
     gridtolerance="10"
     showguides="false">
    <inkscape:grid
       type="xygrid"
       id="grid4221"
       originx="325.90106"
       originy="-13.214023" />
    <sodipodi:guide
       position="169.90109,-257.214"
       orientation="0,1"
       id="guide5141" />
  </sodipodi:namedview>
  <metadata
     id="metadata7">
    <rdf:RDF>
      <cc:Work
         rdf:about="">
        <dc:format>image/svg+xml</dc:format>
        <dc:type
           rdf:resource="http://purl.org/dc/dcmitype/StillImage" />
        <dc:title></dc:title>
      </cc:Work>
    </rdf:RDF>
  </metadata>
  <g
     inkscape:label="Layer 1"
     inkscape:groupmode="layer"
     id="layer1"
     transform="translate(249.11522,-481.34837)"
     style="display:inline">
    <path
       transform="translate(79.240851,210.65941)"
       style="display:inline;fill:#000000;fill-opacity:0.31372549;stroke:none;stroke-width:0.1;stroke-miterlimit:4;stroke-dasharray:none"
       d="m -147.93559,270.69146 c -9.38275,0.0496 -18.17,0.83344 -25.88425,1.70114 -11.23558,1.68064 -26.38975,4.39118 -33.60823,6.26509 -24.36508,5.55996 -39.1571,10.63446 -59.7212,18.05871 -2.13659,-0.27599 -4.04955,-0.29716 -7.23641,0.65457 -0.78646,0.49152 -0.78403,1.26673 -1.30089,1.577 -3.2293,0.21199 -5.34351,-0.0211 -7.03994,0.73419 -1.55933,0.83758 -1.6232,2.68477 -3.78009,2.32049 -2.65956,0.24476 -3.20458,-0.056 -5.19309,1.0482 -0.81408,1.03026 -0.44021,1.4523 -0.90949,2.00723 -3.94799,0.002 -5.36449,0.39692 -5.99382,0.76393 -1.3125,0.76544 -0.41317,0.97908 -1.56686,1.99882 -2.47894,0.67926 -4.40504,0.68992 -6.22674,3.391 -5.03283,0.60949 -8.19445,0.0395 -9.56056,-0.32729 -0.6536,-0.17551 -1.96474,-0.85643 -2.02164,-0.18208 -0.0173,0.20674 -0.008,0.29544 -0.006,0.44316 0.004,0.18317 0.004,0.36732 0.0233,0.54924 0.0619,0.52215 0.14219,1.04762 0.30248,1.5484 0.18059,0.56428 0.41426,1.08389 0.73581,1.61763 0.34839,0.5783 1.30246,1.09163 1.24896,1.82754 -0.36704,5.04653 -10.28808,11.16161 -10.28808,11.16161 l -1.03979,10.69287 2.2624,11.79361 c 0,0 -3.88426,5.1425 -3.60166,8.07684 0.43025,4.46767 4.06412,8.43569 7.72999,11.02543 3.61421,2.55327 12.79201,3.5505 12.79201,3.5505 9.0226,0.77851 18.55877,2.13818 26.87968,2.02316 l 1.4032,-0.0632 3.82513,-0.073 c -2.10658,-4.82078 -3.20407,-10.05307 -3.21948,-15.34938 -3.5e-4,-20.62031 16.05356,-37.33646 35.85711,-37.33628 19.80324,2.6e-4 35.85671,16.71628 35.85634,37.33628 -0.0115,5.94643 1.14268,11.90105 -1.48219,17.18218 56.2864,0.0295 100.932,0.74197 158.233034,0.24754 3.21854,0.16744 1.29259,-1.37328 0.66587,-3.39175 -0.14372,-2.98939 1.01203,-9.15273 -1.48295,-7.84811 -4.10706,-0.3369 -8.95883,0.0318 -40.96202,-0.64555 -58.315454,-1.2342 -57.973814,-1.21066 -64.744874,-4.44207 -10.59026,-5.05398 -24.06264,-28.07783 -24.7158,-42.23881 -0.22768,-4.9362 0.21116,-6.32607 2.99599,-9.48982 l 1.52358,-1.73048 -3.94851,-0.2212 c -19.25638,-1.96467 -32.31971,0.111 -49.52151,-3.02553 -2.17042,-0.39575 -7.79819,-2.86347 -7.77777,-4.75863 7.21756,-7.58214 18.46271,-10.72103 27.50989,-13.42506 30.69479,-9.30385 68.14648,-11.58877 85.32884,-6.16551 12.97066,4.71189 24.13851,12.68661 32.387114,17.69005 3.284,2.18525 6.3779,4.38548 7.17247,5.00862 2.71988,2.14175 5.24876,4.38454 8.89844,6.16729 2.23663,1.01907 1.25898,0.99164 -3.20215,0.99164 -2.33076,-0.19235 -2.34784,0.0421 -3.76492,-0.007 -1.27946,-0.27921 0.64599,-0.87036 -2.79135,-5.18844 -1.40804,-2.0607 -4.25854,-3.73839 -5.94082,-4.55644 -7.865604,-3.82487 -14.504864,-1.52632 -14.658694,7.81501 0.15383,1.05962 0.82642,1.11554 0.55827,1.61988 -0.17513,0.32941 -1.08117,0.28968 -1.08117,0.28967 -3.63796,-0.006 -45.11811,-1.15665 -53.70063,-1.52132 -5.1434,-0.21853 -7.67069,-0.46007 -13.06138,-0.72605 -1.13068,-0.14356 -3.57019,1.50309 -5.30581,6.65333 -3.61511,12.09549 13.47106,42.37136 26.2943,46.59211 6.27724,2.06613 28.78463,3.08336 75.413674,3.40829 l 15.02284,0.10458 0.46723,-3.46698 c 1.08474,-8.05249 2.13096,-21.6222 2.13828,-27.73587 0.0148,-12.1618 -1.9644,-16.66174 -9.32655,-21.20593 -2.15142,-1.32793 -3.29705,-2.92905 -1.65599,-2.31433 6.09645,2.28364 10.71343,7.84784 11.83123,14.25767 1.16352,6.67211 0.25605,25.06294 -1.9547,39.60923 l -0.2212,1.45511 5.90997,-0.10683 5.91073,-0.10685 0.25957,-2.11871 c 0.14296,-1.16529 0.46559,-3.76553 0.71702,-5.7783 0.80554,-6.44759 3.25049,-13.1228 6.58562,-17.98197 7.64125,-10.18604 18.17605,-15.70785 29.96443,-15.80231 3.7128998,0.006 7.4024098,0.61178 10.9366498,1.79669 1.79888996,0.48164 3.40161,0.87946 3.63777,0.89082 2.14838,1.15599 6.28083,3.25982 7.74654,4.82504 2.1451502,2.29146 6.9924902,1.23008 10.1985602,1.2324 10.26159,0 10.51736,0.11725 6.41106,2.92301 -2.70209,1.84629 -4.50498,2.3987 -7.98429,2.44751 -0.90047,0.0126 -1.63719,0.08 -1.63719,0.14972 0,0.0698 0.7786,1.49342 1.73048,3.16377 0.95188,1.67036 1.91895,3.60724 2.14881,4.30364 0.22982,0.6964 0.58733,1.26551 0.79527,1.26551 0.20798,0 0.28991,0.14406 0.18132,0.31976 -0.10859,0.1757 0.0624,1.17246 0.37996,2.21502 2.1139,6.94028 2.14044,17.83109 0.0609,24.81586 -1.39731,3.4118 -1.1e-4,-2.1e-4 -1.47542,3.36166 31.35323,-0.77284 53.69578,-1.13198 51.0274,-4.89727 -1.56905,-1.24258 -0.79796,-3.55347 -1.66728,-5.07031 -0.67156,-1.56492 -1.354021,-1.50844 -3.953511,-3.50431 -1.262041,-1.356 1.393221,-8.39904 1.829891,-12.35149 -0.0232,-3.00498 0.10133,-4.36642 -0.4548,-7.70585 -0.79018,-2.65777 -4.62114,-5.50293 -4.62114,-5.50293 -8.015991,-6.23767 -15.01599,-8.23767 -21.071468,-10.38103 -5.145187,-4.40455 -14.004672,-10.2719 -22.158232,-12.86085 -5.19655,-1.23147 -11.2481402,-2.35797 -11.2481402,-2.35797 l -10.69814,-0.77872 c -13.8744198,-1.56971 -29.6335898,-5.56478 -46.6425198,-5.23659 -16.48058,-8.95471 -43.44664,-23.32245 -61.029594,-29.87489 -11.30858,-4.16386 -24.90297,-5.05734 -35.7638,-5.11621 -0.63043,-0.003 -1.25868,-0.003 -1.88397,0 l -7.7e-4,0 z m 37.55297,5.4465 c 36.939944,15.8521 48.111514,24.3275 60.979184,30.00882 l 3.89133,0.33105 c 2.18382,0.33525 4.08255,0.31904 -2.45653,1.05033 -3.69866,0.31952 -7.45304,0.58442 -10.99458,0.76216 -3.54155,0.17775 -7.0401,0.58444 -10.66504,0.74787 l -3.1871,-2.17063 c -12.30363,-9.86948 -28.263004,-18.32909 -40.564004,-26.07912 -2.30346,-1.44794 -1.40984,-2.64481 1.82678,-4.30513 z m -207.16357,34.78269 0.002,0 c 0.26738,-0.009 0.75603,0.30932 1.48818,0.92544 0.76278,0.64185 2.17758,1.03215 2.7477,0.92317 0.54016,-0.10326 0.35841,0.32812 0.20918,0.56956 1.11506,0.85644 3.48925,-1.06996 4.5805,-0.68016 -2.05796,0.65829 -3.60898,1.37084 -2.49037,1.37084 0.57332,0 -0.23838,1.15731 -0.90963,1.89902 -0.72467,0.80076 2.02495,0.76756 17.39586,2.97342 11.22979,1.61158 11.44421,1.70204 8.48086,3.58135 -2.30554,1.46213 -4.72588,1.83271 -16.53512,2.53252 -11.31674,0.67062 -15.84989,0.71996 -16.18604,0.17606 -0.46777,-0.75687 0.25344,-2.61989 2.10065,-5.42544 1.70487,-2.58936 2.06312,-3.81083 1.11729,-3.81083 -0.20266,0 -0.96656,-0.75663 -1.27831,-1.27002 -0.563,-0.92709 -0.80693,-2.0336 -0.97057,-3.10584 -0.0139,-0.0917 0,-0.27838 0,-0.27838 1.2e-4,-1.3e-4 0.004,-0.002 0.004,-0.002 0.005,-0.24751 0.0852,-0.37172 0.24449,-0.37845 z m 332.584414,2.74996 c 13.84554,2.14873 23.902725,11.36592 28.069924,15.35338 4.167199,3.98746 4.333736,5.48331 4.206576,6.14373 -0.24126,1.25277 -1.38204,0.95565 -7.75632,-2.02166 -3.49622,-1.63298 -4.01307,-2.08783 -4.7671,-1.55968 -0.45002,0.3152 -1.10004,0.71618 -1.5296,0.70122 -2.39555,-0.44045 -1.05123,-0.44115 0.17079,-0.93446 1.22331,-0.49172 1.22438,-0.4913 -2.43772,-2.70332 -6.5558,-3.95988 -15.95661,-12.78474 -15.95655,-14.97921 z m -184.780144,4.95596 c 3.70047,0.002 8.11139,0.42046 10.37537,1.18425 6.24454,2.1067 6.13096,6.28272 -0.20992,7.71118 -2.50355,0.56397 -10.36843,0.82734 -12.33834,0.41306 -4.1355,-0.86973 -6.58889,-6.33472 -3.82737,-8.52601 0.67328,-0.53428 3.12211,-0.78432 6.00026,-0.78248 z m -125.57883,1.03528 c -0.85915,-0.0364 -1.58329,1.36139 -2.10742,1.32118 l -1.31746,-0.0339 c -1.24303,-0.14693 -7.14021,-0.32958 -10.71317,-0.39801 -1.90218,-0.0364 -5.74753,-0.43969 -5.70758,-0.007 0.0688,0.74535 13.03008,1.247 15.51714,1.48145 2.4871,0.23444 -2.55713,1.90065 -0.50032,1.81926 0.51423,-0.0203 1.07538,-0.0407 1.75005,-0.0858 0.67468,-0.0451 1.68238,-2.21269 2.56788,-1.69512 1.27208,0.74352 -1.50995,1.65889 -0.42886,1.71091 1.103,0.01 1.44346,0.10895 2.12549,-0.15799 0.7214,-0.28237 0.365,-1.67043 1.4378,-1.40094 1.60486,0.40316 -0.70615,1.36214 0.33706,1.38138 0.72002,-0.0192 1.17177,-0.0797 1.69212,-0.32278 0.50248,-0.23474 0.3462,-1.23712 1.28806,-1.05334 0.43218,0.0843 -0.02,0.84487 1.18879,0.57633 1.20883,-0.26854 2.01914,-1.48168 2.14352,-1.59129 0.12439,-0.10962 -2.32357,0.78351 -2.90117,0.51689 -0.98786,-0.45599 1.59859,-1.14038 0.5417,-1.17222 -0.48399,-0.0941 -1.01737,-0.088 -1.50402,0.0331 -0.76115,0.18949 -1.38359,1.36975 -2.10291,1.0571 -0.78108,-0.33946 0.56411,-0.97471 0.88781,-1.49122 -0.3237,-0.20629 -1.10153,-0.16944 -1.6289,-0.0399 -0.91721,0.22534 -1.419,1.92736 -2.47758,1.3746 -0.58053,-0.30312 1.18039,-1.39207 1.09021,-1.63417 -0.0902,-0.24211 -0.33191,-0.15304 -1.17824,-0.18885 z m 123.0132,0.3175 c -2.91296,-0.007 -3.34947,0.62657 -3.23826,2.83197 0.0721,1.43023 1.17531,2.30803 2.76426,1.83732 2.26325,-0.29973 9.17705,1.14782 14.70232,0.20164 2.96998,-1.65699 -1.30861,-3.11257 -2.35044,-2.70256 -1.24145,0.48855 -7.85128,0.40986 -8.7886,-0.10458 -1.35851,-0.52621 -5.26621,0.13938 -4.07039,-0.52516 0.79261,-0.44048 2.79867,-0.62318 3.87778,-0.11963 0.90293,0.46784 7.94532,0.65434 8.65016,0.17229 0.41576,-0.28436 -0.18135,-0.75277 -1.56722,-0.60943 -3.06771,0.22284 -0.87143,-0.46456 -2.7003,-0.38823 -2.42783,-0.0428 0.28823,-0.4615 -4.84309,-0.49808 -0.9597,-0.0585 -1.764,-0.0939 -2.43622,-0.0956 z m 159.783704,3.70098 c -13.18359,0.009 -25.56144,8.14207 -30.3489,21.24505 -6.12788,16.77153 2.50001,35.3345 19.27156,41.46236 16.7712398,6.12778 35.33497,-2.49968 41.4631,-19.2708 6.12829,-16.77139 -2.50016,-35.33563 -19.2715502,-41.46386 -3.6688,-1.34059 -7.4228,-1.97521 -11.1142098,-1.97275 z m -230.140594,0.50334 c -17.85627,-2.3e-4 -32.33166,14.47518 -32.33142,32.33143 1.9e-4,17.85596 14.47546,32.3309 32.33142,32.33067 17.85566,-1.8e-4 32.33048,-14.47501 32.33067,-32.33067 2.3e-4,-17.85596 -14.47472,-32.33124 -32.33067,-32.33143 z m 182.790084,6.78876 c -0.0484,0.0351 -0.082,0.59709 -0.082,1.54389 0,1.37716 0.0703,1.94057 0.15574,1.25197 0.0855,-0.68858 0.0855,-1.81535 0,-2.50394 -0.0267,-0.21518 -0.0517,-0.30789 -0.0737,-0.29192 z m 72.94434,1.01346 c -0.87136,-0.007 -1.40041,0.0975 -1.33397,0.43788 2.52659,2.94109 1.49586,3.62418 6.57131,3.74161 5.42693,0.12556 8.37479,-3.58887 8.37479,-3.58887 2.02873,-0.63893 -3.82003,-0.13829 -7.56823,-0.21518 -2.18779,-0.0449 -4.59163,-0.364 -6.0439,-0.37544 z m -24.542,1.78841 -2.50243,7.10853 c -1.47226,4.42515 -1.47241,4.42515 -5.29226,1.29033 l -5.13427,-4.68208 c 4.13306,-2.55812 7.72036,-3.68133 12.92896,-3.71678 z m 2.0893698,0.26635 c 2.00337,0.25753 3.13958,0.4716 4.53838,0.97132 1.39878,0.49974 2.60121,1.19513 4.39842996,2.34443 l -5.00785996,11.11798 c -3.64794,0.0865 -4.4941,-0.2555 -7.1544198,-2.72137 z m -233.2960938,0.11211 c 1.48533,-0.0107 2.85314,0.22948 4.93564,0.69219 l -0.88782,12.16152 c -3.39669,1.33319 -4.30898,1.30305 -7.654,-0.10006 l -0.99013,-12.10886 c 1.97007,-0.44566 3.11097,-0.63411 4.59631,-0.64479 z m -6.64957,1.11202 0.0888,7.53587 c 0.13584,4.66166 0.13585,4.66181 -4.52785,3.02834 l -6.42987,-2.63559 c 3.0041,-3.8212 5.98884,-6.10777 10.86893,-7.92862 z m 13.62943,0.36791 c 4.57595,1.63913 7.74435,3.82987 11.01716,7.88197 l -7.17323,2.38732 c -4.37861,1.60536 -4.37886,1.60489 -4.30665,-3.33607 z m 209.790124,2.87185 8.95638,8.84352 c -0.93354,3.61593 -1.63091,4.35023 -5.08988,5.53905 l -10.14062,-6.60292 c 1.78903,-3.62196 2.93223,-5.1272 6.27412,-7.77965 z m 27.1128998,0.29268 c 3.73548,3.11001 5.95935,6.25497 7.64271,11.18418 l -7.55694,-0.21894 c -4.66362,0.005 -4.66322,0.005 -2.89968,-4.61136 z m 58.5771682,7.43575 c 3.76368,0.24314 5.574276,0.0478 5.703216,2.18226 -1.238148,0.45842 -7.939536,-1.0753 -9.114736,1.57721 0.04698,0.76587 -2.439441,0.66088 -5.03158,0.51956 -5.11685,0 -3.793218,-1.4522 -2.021451,-2.70543 0.929903,-0.65775 0.615509,-1.74677 1.88199,-1.78629 z m -321.046922,-1.57017 11.4475,5.23208 c 0.36413,3.71669 -0.0385,4.64605 -2.87937,6.94976 l -11.79134,-2.72137 c 0.43734,-4.01596 0.9946,-5.8222 3.22321,-9.46047 z m 37.60637,0.65533 c 2.01219,3.5029 2.62515,5.29042 2.9674,9.54323 l -11.94935,2.60024 c -2.27441,-2.85341 -2.51434,-3.73338 -2.15859,-7.34327 z m -98.57054,2.29853 c 0.10752,-0.002 0.22162,0.0103 0.34161,0.0369 9.3797,2.07426 10.44279,2.44693 12.1299,4.25473 0.4989,0.53465 0.79282,1.15835 0.65156,1.3859 l 0,7.7e-4 c -0.29169,0.47108 -3.17479,0.47088 -6.56677,-0.004 -1.27123,-0.17751 -3.04532,-0.42667 -3.94327,-0.55375 -1.94656,-0.27547 -2.79809,-1.02026 -2.79809,-2.44751 0,-0.5781 -0.19234,-1.24414 -0.42813,-1.47994 -0.54393,-0.54395 -0.13941,-1.18384 0.61319,-1.19327 z m 289.527004,0.18132 5.80238,4.84686 c 3.66766,2.88068 3.66767,2.8802 -0.57331,5.41641 l -6.14171,3.2518 c -1.01142,-4.75428 -0.81364,-8.60073 0.91264,-13.51507 z m 41.8912198,4.2284 c 0.6878,3.98072 0.64977,5.8699 -0.4883,9.98187 L -3.4154862,360.35 c -1.15701,-3.46067 -1.08023,-4.36965 0.49281,-7.6382 z m -21.6385598,1.54239 c 0.29987,-0.0149 0.60763,0.0289 0.90738,0.13843 1.19898,0.43809 1.8156998,1.76466 1.37761,2.96364 -0.43809,1.19898 -1.76541,1.81571 -2.96439,1.37762 -1.19898,-0.43809 -1.8157,-1.76466 -1.37761,-2.96364 0.32857,-0.89924 1.15741,-1.47119 2.05701,-1.51605 z m -230.104484,0.4424 c 1.27651,0 2.31132,1.03481 2.31132,2.31132 0,1.27651 -1.03481,2.31132 -2.31132,2.31132 -1.27651,0 -2.31132,-1.03481 -2.31132,-2.31132 0,-1.27651 1.03481,-2.31132 2.31132,-2.31132 z m -21.90264,1.71167 7.11302,2.56187 c 4.43355,1.447 4.43344,1.44633 1.32046,5.28398 l -4.65273,5.16211 c -2.58163,-4.11841 -3.71561,-7.79964 -3.78075,-13.00796 z m 43.48176,1.57624 c -0.35321,4.84781 -1.61511,8.48702 -4.64221,12.72582 l -4.22163,-6.27187 c -2.7198,-3.78842 -2.71964,-3.78824 2.06003,-5.04247 z m 198.836174,0.1896 c 2.85366,2.27409 3.28379,3.07913 3.74235,6.67741 l -9.78851,7.16494 c -2.74293,-2.96572 -3.73977,-4.57185 -5.02216,-8.64112 z m -229.070714,3.71151 c 3.4608,1.15661 4.14128,1.76519 5.8069,4.98755 l -6.73534,10.08872 c -3.59415,-1.84425 -5.08153,-3.01024 -7.68257,-6.39226 z m 17.0588,0.98939 7.66076,9.40554 c -2.82012,2.89243 -4.37189,3.97074 -8.36951,5.46156 l -5.76627,-10.78467 c 2.1237,-2.96729 2.90521,-3.43868 6.47502,-4.08243 z m 232.0486338,0.80505 c 0.67226,-0.005 1.59524996,0.0815 2.82520996,0.19712 l 6.87452004,1.00895 c -1.99548,4.43216 -4.42966,7.41709 -8.72765,10.35957 l -1.81249,-7.33951 c -0.94084,-3.3688 -1.17636,-4.21068 0.84041,-4.22613 z m -7.06638,0.9623 c 0.74013,0.005 1.59549,0.12134 2.71234,0.31525 l 3.96732,11.46406 c -3.6415,1.7489 -5.46863,2.22884 -9.7350898,2.25715 l -1.71468,-12.10886 c 2.07148,-1.41503 3.14183,-1.93948 4.7701098,-1.9276 z m -8.0783398,2.97342 c 0.0898,0.006 0.17339,0.0252 0.25129,0.0594 0.62321,0.27426 0.90496,1.47729 1.4679,3.88305 l 1.22864,6.83992 c -4.83662,-0.48279 -8.44086,-1.84133 -12.59715,-4.98078 l 6.38247,-4.05233 c 1.68867,-1.14514 2.63829,-1.78973 3.26685,-1.74929 z m -225.870824,1.42877 c 0.67948,0.0437 1.35719,1.07701 2.71159,3.14346 l 3.50159,6.00252 c -4.70856,1.20643 -8.5601,1.16722 -13.5414,-0.35513 l 4.60384,-5.99649 c 1.36355,-1.89159 2.04489,-2.83807 2.72438,-2.79436 z"
       id="path4860"
       inkscape:connector-curvature="0"
       sodipodi:nodetypes="ccccccccccscccccccsccccsscccccscccccssscccsccscccccccscccsccsscccsssccccccccccccscsscsscccccccccccccccccccccccscccccccccccscsssssscccccsczcscccsccssscccccccscssccscccssscccccccccccccccsccccccscsssssssssccscccsccscsccccccccccccccccccccccccccccccccccccccccccscccccccccccccccccccssscccccccccccsccssssssssccccccccccccccccccccccccccccccccccccccccccccccccccc" />
  </g>
</svg>
