<?xml version="1.0" encoding="UTF-8" standalone="no"?>
<!-- Created with Inkscape (http://www.inkscape.org/) -->

<svg
   xmlns:dc="http://purl.org/dc/elements/1.1/"
   xmlns:cc="http://creativecommons.org/ns#"
   xmlns:rdf="http://www.w3.org/1999/02/22-rdf-syntax-ns#"
   xmlns:svg="http://www.w3.org/2000/svg"
   xmlns="http://www.w3.org/2000/svg"
   xmlns:sodipodi="http://sodipodi.sourceforge.net/DTD/sodipodi-0.dtd"
   xmlns:inkscape="http://www.inkscape.org/namespaces/inkscape"
   id="svg4603"
   version="1.1"
   inkscape:version="0.48.4 r9939"
   width="692"
   height="690"
   sodipodi:docname="about.svg">
  <metadata
     id="metadata4609">
    <rdf:RDF>
      <cc:Work
         rdf:about="">
        <dc:format>image/svg+xml</dc:format>
        <dc:type
           rdf:resource="http://purl.org/dc/dcmitype/StillImage" />
        <dc:title />
      </cc:Work>
    </rdf:RDF>
  </metadata>
  <defs
     id="defs4607" />
  <sodipodi:namedview
     pagecolor="#ffffff"
     bordercolor="#666666"
     borderopacity="1"
     objecttolerance="10"
     gridtolerance="10"
     guidetolerance="10"
     inkscape:pageopacity="0"
     inkscape:pageshadow="2"
     inkscape:window-width="1580"
     inkscape:window-height="1007"
     id="namedview4605"
     showgrid="false"
     inkscape:zoom="0.96740406"
     inkscape:cx="208.90262"
     inkscape:cy="330.90267"
     inkscape:window-x="582"
     inkscape:window-y="359"
     inkscape:window-maximized="0"
     inkscape:current-layer="svg4603" />
  <path
     sodipodi:type="arc"
     style="fill:none;stroke:#0000ff;stroke-width:24.29819489;stroke-linejoin:round;stroke-miterlimit:4;stroke-dasharray:none"
     id="path3022"
     sodipodi:cx="436.38589"
     sodipodi:cy="534.15393"
     sodipodi:rx="311.12698"
     sodipodi:ry="336.3808"
     d="m 747.51288,534.15393 a 311.12698,336.3808 0 1 1 -622.25397,0 311.12698,336.3808 0 1 1 622.25397,0 z"
     transform="matrix(1.069825,0,0,0.98950787,-123.3184,-183.54952)"
     inkscape:export-filename="E:\Work\myCENTER\img\news.png"
     inkscape:export-xdpi="90"
     inkscape:export-ydpi="90" />
  <path
     style="opacity:0.95999995;fill:#0000ff;stroke:#ffffff;stroke-width:5.58480501;stroke-linecap:butt;stroke-linejoin:round;stroke-miterlimit:0.60000002;stroke-opacity:1;stroke-dasharray:none;stroke-dashoffset:0;marker-start:none"
     d="m 264.28388,258.94624 c -10.18928,-13.83174 2.80839,-17.27461 19.25548,-23.53725 19.63878,-7.47796 63.17216,-1.42133 63.17216,-1.42133 0,0 13.58327,2.74837 19.47093,5.95902 5.75403,3.13779 14.15795,7.14743 14.10207,13.70116 -0.75896,89.00479 -40.95293,171.93201 0,241.06988 5.60682,9.46559 17.94305,15.77382 28.94424,15.85986 10.7596,0.0841 7.86095,-4.3374 14.59288,4.05647 10.85245,13.53166 -2.92782,16.43786 -19.74733,20.52632 -22.21914,5.40099 -68.5939,-0.793 -68.5939,-0.793 0,0 -15.61017,-4.30703 -21.55618,-9.41901 -5.00488,-4.30284 -10.51004,-10.14971 -10.56004,-16.74977 -0.59653,-78.74972 50.54041,-178.59704 0,-241.06987 -5.6925,-7.03647 -17.55519,-6.64271 -26.5536,-5.6705 -10.01039,1.08154 -6.55496,5.59455 -12.52671,-2.51198 z"
     id="path3909"
     inkscape:connector-curvature="0"
     sodipodi:nodetypes="sscsssssscsssss" />
  <path
     sodipodi:type="arc"
     style="opacity:0.95999995;fill:#0000ff;fill-opacity:1;stroke:#ffffff;stroke-width:6.30000019;stroke-linecap:butt;stroke-linejoin:round;stroke-miterlimit:0.60000002;stroke-opacity:1;stroke-dasharray:none;stroke-dashoffset:0"
     id="path2987"
     sodipodi:cx="323.80298"
     sodipodi:cy="187.11864"
     sodipodi:rx="35.815678"
     sodipodi:ry="24.851694"
     d="m 359.61866,187.11864 a 35.815678,24.851694 0 1 1 -71.63136,0 35.815678,24.851694 0 1 1 71.63136,0 z"
     transform="matrix(1.2610314,0,0,1.2610314,-64.787583,-56.153166)" />
</svg>
