<?xml version="1.0" encoding="UTF-8" standalone="no"?>
<!-- Created with Inkscape (http://www.inkscape.org/) -->

<svg
   xmlns:dc="http://purl.org/dc/elements/1.1/"
   xmlns:cc="http://creativecommons.org/ns#"
   xmlns:rdf="http://www.w3.org/1999/02/22-rdf-syntax-ns#"
   xmlns:svg="http://www.w3.org/2000/svg"
   xmlns="http://www.w3.org/2000/svg"
   xmlns:sodipodi="http://sodipodi.sourceforge.net/DTD/sodipodi-0.dtd"
   xmlns:inkscape="http://www.inkscape.org/namespaces/inkscape"
   width="744.09448819"
   height="1052.3622047"
   id="svg4009"
   version="1.1"
   inkscape:version="0.48.4 r9939"
   sodipodi:docname="New document 11">
  <defs
     id="defs4011" />
  <sodipodi:namedview
     id="base"
     pagecolor="#ffffff"
     bordercolor="#666666"
     borderopacity="1.0"
     inkscape:pageopacity="0.0"
     inkscape:pageshadow="2"
     inkscape:zoom="0.98994949"
     inkscape:cx="301.58618"
     inkscape:cy="569.76025"
     inkscape:document-units="px"
     inkscape:current-layer="layer1"
     showgrid="false"
     inkscape:window-width="1464"
     inkscape:window-height="1007"
     inkscape:window-x="60"
     inkscape:window-y="60"
     inkscape:window-maximized="0" />
  <metadata
     id="metadata4014">
    <rdf:RDF>
      <cc:Work
         rdf:about="">
        <dc:format>image/svg+xml</dc:format>
        <dc:type
           rdf:resource="http://purl.org/dc/dcmitype/StillImage" />
        <dc:title></dc:title>
      </cc:Work>
    </rdf:RDF>
  </metadata>
  <g
     inkscape:label="Layer 1"
     inkscape:groupmode="layer"
     id="layer1">
    <path
       sodipodi:type="arc"
       style="fill:none;stroke:#0000ff;stroke-width:24.29819489000000100;stroke-linejoin:round;stroke-miterlimit:4;stroke-dasharray:none"
       id="path3022"
       sodipodi:cx="436.38589"
       sodipodi:cy="534.15393"
       sodipodi:rx="311.12698"
       sodipodi:ry="336.3808"
       d="m 747.51288,534.15393 a 311.12698,336.3808 0 1 1 -622.25397,0 311.12698,336.3808 0 1 1 622.25397,0 z"
       transform="matrix(1.069825,0,0,0.98950787,-97.349397,-15.416565)"
       inkscape:export-filename="E:\Work\myCENTER\img\news.png"
       inkscape:export-xdpi="90"
       inkscape:export-ydpi="90" />
    <path
       style="fill:#0000ff;fill-opacity:1;stroke:none"
       d="m 213.6724,682.66024 c -6.22201,-2.6991 -16.17922,-8.61928 -22.12714,-13.15598 l -10.81439,-8.24854 -7.33543,-13.72323 -8.50731,-14.30919 0.22587,-143.91021 -0.94602,-144.49615 5.27186,-5.27188 5.27188,-5.27185 135.43572,0 135.4357,0 5.096,7.27562 5.0961,7.27565 0,17.47205 0,17.47205 45.0122,-0.66104 45.0123,-0.66106 8.4743,3.45729 c 4.6608,1.90151 12.3362,8.04686 17.0562,13.65633 l 0.5819,10.19905 1.9855,10.58331 c 1.092,5.82083 0.4189,56.2317 0.9487,112.02505 l -1.0368,101.44173 -4.139,15.83545 c -1.6781,6.42022 -4.552,10.45816 -10.8084,16.71457 l -11.3753,11.37524 -16.9874,5.04474 -16.9874,5.0447 -143.0916,4.16876 -145.4353,-4.42501 z m 222.61684,-33.79231 -3.4548,-13.40141 0,-135.05721 0,-142.79119 -122.8733,0 -120.25952,0 0,133.7225 0,121.01668 4.88292,17.80718 7.46936,15.75929 17.46416,12.13542 19.38374,7.51496 98.30924,1.90745 100.1955,-0.82864 4.1307,-8.11735 z m -214.46168,-35.24989 -2.36322,-6.53962 4.5392,-6.91317 6.35433,-3.68544 26.66367,0 26.6637,0 3.9283,3.92835 c 2.1606,2.16059 4.4808,3.43113 4.4808,7.21215 0,3.78103 -2.044,6.15642 -4.2046,8.31702 l -3.9283,3.92834 -27.0956,0 -27.09555,0 z m 93.56058,2.31929 c -2.1606,-2.16058 -3.6521,-4.53599 -3.6521,-8.31702 0,-3.78102 1.2153,-5.05157 3.3759,-7.21215 l 3.9283,-3.92835 38.5533,0 38.5532,0 5.4948,6.85968 5.4947,5.47859 -4.7263,6.21433 -5.2787,5.6619 -37.6644,-0.82864 -40.1504,0 z m -95.84772,-44.79654 -4.24517,-6.32719 -0.25254,-4.61256 c -0.18425,-3.36523 0.79968,-4.5757 3.62902,-7.40504 l 5.3968,-4.89172 29.95831,-0.25254 30.2108,0 3.9283,3.92834 c 2.16059,2.16061 3.9284,3.36601 3.9284,7.40505 l -0.50508,5.32339 -3.18766,4.95401 -5.8078,3.18625 -29.78286,0.75761 -24.7322,0 z m 97.92442,-1.47024 -5.7288,-3.33675 0,-5.6889 0,-5.13648 3.9283,-3.92834 3.9284,-3.92834 38.5532,0 38.5532,0 5.5484,5.96497 4.5719,5.6136 -3.87494,5.50802 -5.07626,5.99763 -5.1885,2.19422 -37.7814,0.17661 -31.7047,-0.0996 -5.7288,-3.33675 z m -100.1229,-50.16867 -2.77534,-6.66786 0.17388,-3.13444 4.51437,-6.40956 7.56732,-4.55407 27.24206,-0.20921 26.57241,-0.25254 5.7288,4.00174 5.7289,4.3488 0,3.73258 c 0,3.724 -1.7625,6.3237 -4.5919,9.15303 l -5.1442,5.14425 -28.7214,0 -28.72134,0 -4.5431,-2.37471 z m 99.1292,1.06061 c -1.7415,-2.2506 -4.6506,-3.94126 -5.7895,-7.13294 l 0.9676,-5.8031 3.4347,-3.43463 6.4729,-5.91762 37.461,0 37.461,0 5.096,6.72027 c 6.90715,9.10869 6.9826,5.23155 -0.8987,13.11282 l -6.5472,6.54723 -37.2458,0 -37.2458,0 z m -99.01533,-66.54653 -3.92833,-3.92834 0,-19.24268 0,-19.2427 3.92833,-3.92835 3.92835,-3.92833 89.25458,0 87.2546,0 3.3888,6.33203 3.3888,6.33201 0,15.62311 0,15.62308 -5.1443,5.14425 -5.1442,5.14426 -85.4991,0 -87.49918,0 z m 310.39003,195.06533 11.4066,-6.00643 5.7238,-11.18005 5.7237,-11.18003 0.01,-98.37221 -0.3846,-98.76288 -1.5846,-9.983 -6.0768,-7.24867 -9.2471,0 -9.2472,0 -5.341,7.02998 -1.0442,9.76433 0.1953,92.62894 -0.6835,82.08207 -3.6561,5.19528 -3.2654,2.85153 -9.3193,-0.48376 -3.9512,-2.72986 -3.4937,-4.57075 -1.9313,-8.9653 0.9194,-87.57134 0.5289,-94.21196 -22.1904,-1.16888 -15.5496,0.003 0.4031,112.21482 0.013,105.57418 6.1143,10.02663 6.1143,10.02663 11.06,5.44851 11.0599,5.44851 13.1455,0.0746 13.1456,0.0746 11.4066,-6.00648 z"
       id="path3020"
       inkscape:connector-curvature="0"
       sodipodi:nodetypes="sscccccccccccccccsscsscsscccccsccccccccccccccccccccccsssccccssscccccccccsccsscccssccccccccccccccccccccccccccccccccsscccccsscccccsscccsccccccccccccccccccccccccccccccccccccccccccccccccccc" />
  </g>
</svg>
