<?xml version="1.0" encoding="UTF-8" standalone="no"?>
<!-- Created with Inkscape (http://www.inkscape.org/) -->

<svg
   xmlns:dc="http://purl.org/dc/elements/1.1/"
   xmlns:cc="http://creativecommons.org/ns#"
   xmlns:rdf="http://www.w3.org/1999/02/22-rdf-syntax-ns#"
   xmlns:svg="http://www.w3.org/2000/svg"
   xmlns="http://www.w3.org/2000/svg"
   xmlns:sodipodi="http://sodipodi.sourceforge.net/DTD/sodipodi-0.dtd"
   xmlns:inkscape="http://www.inkscape.org/namespaces/inkscape"
   width="744.09448819"
   height="1052.3622047"
   id="svg4583"
   version="1.1"
   inkscape:version="0.48.4 r9939"
   sodipodi:docname="projects.svg">
  <defs
     id="defs4585" />
  <sodipodi:namedview
     id="base"
     pagecolor="#ffffff"
     bordercolor="#666666"
     borderopacity="1.0"
     inkscape:pageopacity="0.0"
     inkscape:pageshadow="2"
     inkscape:zoom="0.98994949"
     inkscape:cx="474.18784"
     inkscape:cy="533.56558"
     inkscape:document-units="px"
     inkscape:current-layer="layer1"
     showgrid="false"
     inkscape:window-width="1712"
     inkscape:window-height="1122"
     inkscape:window-x="91"
     inkscape:window-y="90"
     inkscape:window-maximized="0" />
  <metadata
     id="metadata4588">
    <rdf:RDF>
      <cc:Work
         rdf:about="">
        <dc:format>image/svg+xml</dc:format>
        <dc:type
           rdf:resource="http://purl.org/dc/dcmitype/StillImage" />
        <dc:title />
      </cc:Work>
    </rdf:RDF>
  </metadata>
  <g
     inkscape:label="Layer 1"
     inkscape:groupmode="layer"
     id="layer1">
    <path
       sodipodi:type="arc"
       style="fill:none;stroke:#0000ff;stroke-width:24.29819489;stroke-linejoin:round;stroke-miterlimit:4;stroke-dasharray:none"
       id="path3022"
       sodipodi:cx="436.38589"
       sodipodi:cy="534.15393"
       sodipodi:rx="311.12698"
       sodipodi:ry="336.3808"
       d="m 747.51288,534.15393 a 311.12698,336.3808 0 1 1 -622.25397,0 311.12698,336.3808 0 1 1 622.25397,0 z"
       transform="matrix(1.069825,0,0,0.98950787,-89.713679,-11.901621)"
       inkscape:export-filename="E:\Work\myCENTER\img\news.png"
       inkscape:export-xdpi="90"
       inkscape:export-ydpi="90" />
    <path
       style="fill:#0000ff"
       d="m 350.98835,736.74367 c -3.47078,-0.19041 -10.08126,-0.65268 -14.82621,-1.44043 -5.36996,-1.05561 -13.49072,-2.12667 -17.39553,-4.79821 -0.66908,-0.45777 -1.29876,-2.05627 -1.29876,-2.05627 -0.71431,-1.13098 -1.31078,-10.92603 -1.32545,-21.76683 l -0.0267,-19.71054 -5.14431,-2.67919 c -2.82938,-1.47354 -6.84841,-2.67917 -8.93122,-2.67917 l -3.78689,0 -14.50095,14.25488 -14.50095,14.25487 -11.8764,-7.9887 C 231.5176,684.74104 210.25991,663.32725 192.87943,637.16496 l -7.94611,-11.96103 14.15403,-14.60428 14.15401,-14.60426 0,-3.81387 c 0,-2.09765 -1.1971,-6.14532 -2.66022,-8.99485 l -2.66022,-5.18097 -19.57109,-0.0269 c -10.76411,-0.014 -20.48987,-0.61549 -21.61283,-1.3349 0,0 -1.58143,-0.64363 -2.04173,-1.30802 -2.89412,-4.17737 -4.43917,-14.3729 -4.43917,-14.3729 0,0 -1.40467,-10.39055 -1.93916,-15.44434 -1.0158,-9.60474 -1.07143,-19.67376 -1.07143,-29.33207 0,-9.65831 0.0556,-19.01305 1.07143,-28.61779 0.53449,-5.05378 1.58202,-14.37291 1.58202,-14.37291 0,0 1.90218,-11.26696 4.79631,-15.44433 0.4603,-0.66439 2.04173,-1.30801 2.04173,-1.30801 1.12296,-0.71941 10.84872,-1.32012 21.61283,-1.3349 l 19.57109,-0.0269 2.66022,-5.18097 c 1.46312,-2.84954 2.66022,-6.8972 2.66022,-8.99484 l 0,-3.81389 -14.15401,-14.60426 -14.15403,-14.60428 7.93218,-11.96102 c 17.27001,-26.04154 38.53231,-47.45069 64.50951,-64.95501 l 11.8764,-8.00273 14.50095,14.25487 14.50095,14.25487 3.78689,0 c 2.08281,0 6.10184,-1.20563 8.93122,-2.67917 l 5.14431,-2.67918 0.0267,-19.71054 c 0.014,-10.8408 0.61114,-20.63586 1.32545,-21.76683 0,0 0.64841,-1.57226 1.29876,-2.05627 4.07463,-3.03247 28.44021,-6.36863 28.44021,-6.36863 0,0 -3.85433,0.48323 1.16608,-0.0551 9.53531,-1.02256 19.17996,-1.60714 28.76994,-1.60714 9.58998,0 19.23463,0.58459 28.76994,1.60714 5.02041,0.53838 1.16609,0.0551 1.16609,0.0551 0,0 24.36623,4.91774 28.31393,7.75759 0.65811,0.47342 1.80385,1.67746 1.80385,1.67746 0.71431,1.13097 0.93196,9.91588 0.94664,20.75668 l 0.0267,19.71054 5.14431,2.67918 c 2.82937,1.47354 6.84841,2.67917 8.93121,2.67917 l 3.78689,0 14.50094,-14.25487 14.50096,-14.25487 11.87641,8.00273 c 25.97719,17.50432 47.23949,38.91347 64.50948,64.95509 l 7.93218,11.96102 -14.15403,14.60428 -14.15402,14.60426 0,3.81389 c 0,2.09764 1.1971,6.1453 2.66022,8.99484 l 2.66023,5.18097 19.57109,0.0269 c 10.76411,0.014 20.48986,0.61549 21.61283,1.3349 l 2.04173,1.30801 3.18917,14.90862 3.18916,14.90862 c 0,0 0.98214,19.22733 0.98214,28.88564 0,9.65831 -0.98214,29.06422 -0.98214,29.06422 l -3.18916,14.90863 -3.18917,14.90861 -2.04173,1.30802 c -1.12297,0.71941 -10.84872,1.32011 -21.61283,1.3349 l -19.57109,0.0269 -2.66023,5.18097 c -1.46312,2.84953 -2.66022,6.8972 -2.66022,8.99485 l 0,3.81387 14.15402,14.60426 14.15403,14.60428 -7.94612,11.96103 c -17.38047,26.16229 -38.63817,47.57608 -64.49554,64.96912 l -11.87641,7.9887 -14.50096,-14.25487 -14.50094,-14.25488 -3.78689,0 c -2.0828,0 -6.10184,1.20563 -8.93121,2.67917 l -5.14431,2.67919 -0.0267,19.71054 c -0.014,10.8408 -0.60444,20.62493 -1.31056,21.74254 0,0 -1.26738,1.01625 -1.90886,1.49627 -3.45474,2.58516 -7.46627,3.10833 -11.8244,4.08214 -4.35814,0.97381 -18.49764,2.67525 -18.49764,2.67525 0,0 -16.49856,0.72394 -24.75347,0.75112 -9.62267,0.0317 -22.5488,-0.47158 -28.86001,-0.68558 -6.24808,-0.52965 -3e-5,-8e-5 -3e-5,-8e-5 z m 60.15533,-25.67419 6.97453,-1.25692 1.74363,-20.53996 1.74364,-20.53994 1.74363,-1.61585 c 0.95899,-0.88871 9.67794,-3.00579 13.34959,-4.65156 3.83599,-1.71942 3.30361,-1.68508 7.9424,-3.72308 10.96181,-4.81596 6.41107,-6.66948 21.69541,8.3555 l 14.56046,14.31338 6.70335,-4.46767 c 3.68685,-2.45722 11.3444,-9.62883 18.24533,-14.32923 l 11.54199,-9.86154 11.44378,-14.40487 c 14.13526,-17.79278 14.20956,-16.46952 -1.85779,-33.09788 l -13.30158,-13.76602 4.2828,-9.22529 c 0.98039,-2.11179 2.55906,-6.23452 4.64453,-10.4732 l 5.14748,-10.46218 20.27766,-0.4953 20.27766,-0.49531 2.06033,-4.77286 2.06034,-4.77287 0.0548,-34.2431 0.0548,-34.24311 -1.34094,-4.82915 -1.34094,-4.82916 -19.80507,0 -24.13541,-0.13393 -2.69467,-6.91933 c -0.56361,-1.44722 -0.0456,-0.13388 -3.58531,-8.04477 -3.25473,-7.27393 -4.01552,-8.36594 -4.86637,-10.59115 l -1.87636,-4.9072 15.28771,-15.21135 14.43954,-14.89887 -6.83649,-10.10278 c -11.33689,-16.75334 -47.83588,-51.38274 -54.15692,-51.38274 -0.69473,0 -8.38452,5.84076 -15.7514,14.24241 l -14.48828,14.24242 -2.19527,-0.99118 c -1.20742,-0.54516 -6.89153,-4.69109 -14.92687,-8.34434 l -10.91017,-4.96028 -0.87182,-20.18499 -0.87181,-20.18497 -1.74363,-1.70401 c -6.84819,-6.69259 -77.89594,-7.37064 -85.438,0 l -1.74364,1.70401 -0.87182,20.18497 -0.87182,20.18499 -10.82087,4.15671 c -8.2398,3.16522 -9.90559,4.3619 -10.94474,5.18362 l -6.62383,3.61618 -14.13114,-12.90313 c -8.25162,-7.53455 -15.05668,-14.24241 -15.75141,-14.24241 -6.32809,0 -40.76453,35.74042 -54.19295,51.51666 l -6.87246,10.07404 14.45958,14.63867 14.45957,14.63863 -6.7275,14.71954 c -4.0471,8.85491 -3.30035,7.32947 -3.80785,8.78451 l -2.63413,7.55221 -23.06283,0.26786 -19.75927,0 -1.38674,6.58522 -1.38673,6.58521 0.0884,32.48704 0.0884,32.48705 2.02669,4.77287 2.02671,4.77286 20.27766,0.49531 22.27767,0.4953 4.0859,10.92647 c 3.10529,8.30413 6.45552,14.50694 6.90718,16.43859 l 0.8212,3.51212 -13.17134,13.12647 -13.17137,13.12646 0,2.74479 c 0,1.50965 5.1497,9.22698 11.44379,17.14967 l 11.44378,14.40487 11.54199,9.86154 c 6.3481,5.42385 14.55848,11.87201 18.24533,14.32923 l 6.70335,4.46767 14.56046,-14.31338 c 16.7065,-16.423 12.46574,-13.51464 23.07041,-8.16297 4.52336,2.28273 11.36283,5.1515 15.19882,6.37504 3.836,1.22357 3.86245,0.93102 4.94765,1.79435 l 2.50884,0.94467 0.72225,20.90174 1.25798,20.27675 1.9998,0.74116 c 1.0999,0.40766 7.18073,2.00753 14.20524,2.41075 l 20.28665,1.1645 11.97055,-0.3561 c 11.03377,-0.32824 23.19032,-1.42678 27.02632,-2.11808 z m -74.4604,-136.61692 -8.58955,-8.97274 -7.64832,-9.10084 0,-13.24775 -9.12691,-8.14892 -0.0373,-17.56056 -0.0373,-17.56057 9.20151,-10.00337 0,-14.00337 8.18893,-8.13637 8.07881,-8.13635 13.9326,-0.68901 9.93262,-8.68899 16.56451,0 16.56451,0 9.93261,8.68899 13.9326,0.68901 8.07881,8.13635 8.57497,8.13637 0,14.00337 8.81547,10.00337 -0.0373,17.56057 -0.0373,17.56056 -8.74087,8.78029 0,12.78028 -8.35699,9.99031 -8.25135,8.99079 -13.25064,0.17858 -10.33353,8.70122 -33.49007,-0.53571 -9.81305,-8.52266 z m 61.20314,-15.67098 c 8.69277,-4.46633 16.76837,-12.65146 21.51527,-21.80711 l 3.76425,-7.26033 0,-13.17041 0,-13.17043 -3.76425,-7.26032 c -4.79259,-9.24378 -12.79426,-17.30247 -21.97264,-22.12921 l -7.20896,-3.79106 -13.07725,0 -13.07724,0 -7.20896,3.79106 c -9.17838,4.82674 -17.18005,12.88543 -21.97266,22.12921 l -3.76424,7.26032 0,13.17043 0,13.17041 3.76424,7.26033 c 6.55715,12.64716 17.92652,22.00119 30.92525,25.44342 l 5.23089,1.38521 10.4045,0.11658 9.6902,-1.66916 z"
       id="path3884"
       inkscape:connector-curvature="0"
       sodipodi:nodetypes="ccscscsscccsscccssccsscssscssscsscccsscccsscccscssscscscsscccsscccssccscccscccsscsscccsscccssccssscaccccccsssscsscsscsscccccccccccssscccssscsscccsscccsscssscccsscccccccccccsscccsscsscssscccccscsccccccccccccccccccccccccccccccccccsscccsscccsscccsscccs" />
  </g>
</svg>
