<?xml version="1.0" encoding="UTF-8" standalone="no"?>
<!-- Created with Inkscape (http://www.inkscape.org/) -->

<svg
   xmlns:dc="http://purl.org/dc/elements/1.1/"
   xmlns:cc="http://creativecommons.org/ns#"
   xmlns:rdf="http://www.w3.org/1999/02/22-rdf-syntax-ns#"
   xmlns:svg="http://www.w3.org/2000/svg"
   xmlns="http://www.w3.org/2000/svg"
   xmlns:sodipodi="http://sodipodi.sourceforge.net/DTD/sodipodi-0.dtd"
   xmlns:inkscape="http://www.inkscape.org/namespaces/inkscape"
   width="116.3158mm"
   height="116.3158mm"
   viewBox="0 0 412.14258 412.14258"
   id="svg2"
   version="1.1"
   inkscape:version="0.91 r13725"
   sodipodi:docname="ink-default.svg">
  <defs
     id="defs4" />
  <sodipodi:namedview
     id="base"
     pagecolor="#ffffff"
     bordercolor="#666666"
     borderopacity="1.0"
     inkscape:pageopacity="0.0"
     inkscape:pageshadow="2"
     inkscape:zoom="0.98994949"
     inkscape:cx="186.52309"
     inkscape:cy="248.20301"
     inkscape:document-units="px"
     inkscape:current-layer="layer1"
     showgrid="true"
     fit-margin-top="0"
     fit-margin-left="0"
     fit-margin-right="0"
     fit-margin-bottom="0"
     inkscape:snap-path-clip="true"
     inkscape:snap-path-mask="true"
     objecttolerance="20"
     inkscape:snap-perpendicular="false"
     inkscape:snap-tangential="false"
     guidetolerance="20"
     showguides="false"
     inkscape:window-width="1440"
     inkscape:window-height="800"
     inkscape:window-x="0"
     inkscape:window-y="1"
     inkscape:window-maximized="1" />
  <metadata
     id="metadata7">
    <rdf:RDF>
      <cc:Work
         rdf:about="">
        <dc:format>image/svg+xml</dc:format>
        <dc:type
           rdf:resource="http://purl.org/dc/dcmitype/StillImage" />
        <dc:title></dc:title>
      </cc:Work>
    </rdf:RDF>
  </metadata>
  <g
     inkscape:label="Layer 1"
     inkscape:groupmode="layer"
     id="layer1"
     transform="translate(-173.92871,-277.71948)">
    <g
       id="layer1-6"
       transform="translate(26.445851,130.45375)"
       style="fill:#000000;fill-opacity:0.3137255">
      <path
         style="fill:#000000;fill-opacity:0.3137255;fill-rule:evenodd;stroke:none;stroke-width:1px;stroke-linecap:butt;stroke-linejoin:miter;stroke-opacity:1"
         d="M 353.55317,147.26573 A 206.07112,206.07112 0 0 0 147.48286,353.33604 206.07112,206.07112 0 0 0 353.55317,559.40831 206.07112,206.07112 0 0 0 559.62544,353.33604 206.07112,206.07112 0 0 0 353.55317,147.26573 Z M 293.62934,254.3419 a 30.304577,30.304577 0 0 1 30.30469,30.30469 30.304577,30.304577 0 0 1 -30.30469,30.30469 30.304577,30.304577 0 0 1 -30.30468,-30.30469 30.304577,30.304577 0 0 1 30.30468,-30.30469 z m 119.84961,0 a 30.304577,30.304577 0 0 1 30.30469,30.30469 30.304577,30.304577 0 0 1 -30.30469,30.30469 30.304577,30.304577 0 0 1 -30.30468,-30.30469 30.304577,30.304577 0 0 1 30.30468,-30.30469 z m 39.4043,107.96875 c 35.02119,0.37521 44.89375,24.08291 -19.06055,101.86524 -68.26489,83.02494 -144.01757,-49.8125 -144.01757,-49.8125 0,0 110.20299,-52.61922 163.07812,-52.05274 z"
         id="path3338"
         inkscape:connector-curvature="0" />
    </g>
  </g>
</svg>
