<?xml version="1.0" encoding="UTF-8" standalone="no"?>
<!-- Created with Inkscape (http://www.inkscape.org/) -->

<svg
   xmlns:dc="http://purl.org/dc/elements/1.1/"
   xmlns:cc="http://creativecommons.org/ns#"
   xmlns:rdf="http://www.w3.org/1999/02/22-rdf-syntax-ns#"
   xmlns:svg="http://www.w3.org/2000/svg"
   xmlns="http://www.w3.org/2000/svg"
   xmlns:sodipodi="http://sodipodi.sourceforge.net/DTD/sodipodi-0.dtd"
   xmlns:inkscape="http://www.inkscape.org/namespaces/inkscape"
   width="112.8889mm"
   height="110.06667mm"
   viewBox="0 0 400.00001 389.99997"
   id="svg2"
   version="1.1"
   inkscape:version="0.91 r13725"
   sodipodi:docname="ink-github.svg">
  <defs
     id="defs4" />
  <sodipodi:namedview
     id="base"
     pagecolor="#ffffff"
     bordercolor="#666666"
     borderopacity="1.0"
     inkscape:pageopacity="0.0"
     inkscape:pageshadow="2"
     inkscape:zoom="0.98994949"
     inkscape:cx="173.59939"
     inkscape:cy="214.5096"
     inkscape:document-units="px"
     inkscape:current-layer="layer1"
     showgrid="false"
     fit-margin-top="0"
     fit-margin-left="0"
     fit-margin-right="0"
     fit-margin-bottom="0"
     inkscape:window-width="1440"
     inkscape:window-height="800"
     inkscape:window-x="0"
     inkscape:window-y="1"
     inkscape:window-maximized="1" />
  <metadata
     id="metadata7">
    <rdf:RDF>
      <cc:Work
         rdf:about="">
        <dc:format>image/svg+xml</dc:format>
        <dc:type
           rdf:resource="http://purl.org/dc/dcmitype/StillImage" />
        <dc:title></dc:title>
      </cc:Work>
    </rdf:RDF>
  </metadata>
  <g
     inkscape:label="Layer 1"
     inkscape:groupmode="layer"
     id="layer1"
     transform="translate(-150.78424,-342.99439)">
    <path
       id="path5807"
       d="m 350.78424,342.99439 c -110.44922,0 -200,89.51925 -200,199.92957 0,88.34777 57.3,163.27257 136.77968,189.70346 9.99766,1.83065 13.64766,-4.34417 13.64766,-9.61571 0,-4.75933 -0.1832,-20.52487 -0.28086,-37.21819 -55.61523,12.08054 -67.3707,-23.5757 -67.3707,-23.5757 -9.10625,-23.08753 -22.20469,-29.2377 -22.20469,-29.2377 -18.17617,-12.39798 1.37891,-12.15393 1.37891,-12.15393 20.08047,1.39092 30.65234,20.59825 30.65234,20.59825 17.84688,30.55564 46.82617,21.72085 58.20313,16.59566 1.81796,-12.88606 6.99375,-21.72084 12.69531,-26.69956 -44.39688,-5.05173 -91.10078,-22.20897 -91.10078,-98.81791 0,-21.84309 7.80039,-39.65868 20.56875,-53.65532 -2.03867,-5.07633 -8.92344,-25.41839 1.97734,-52.93526 0,0 16.77266,-5.36919 55.00469,20.50059 15.94219,-4.4539 33.04453,-6.65038 50.04883,-6.7238 16.99218,0.0734 34.10624,2.29411 50.07343,6.74801 38.15937,-25.89399 54.95625,-20.50058 54.95625,-20.50058 10.9375,27.54146 4.05273,47.85892 2.00195,52.91104 12.81719,13.99664 20.55664,31.81262 20.55664,53.65532 0,76.80419 -46.77734,93.71698 -91.33281,98.67148 7.20235,6.19899 13.57422,18.35288 13.57422,36.99871 0,26.72419 -0.26875,48.274 -0.26875,54.86348 0,5.32032 3.6375,11.54353 13.76953,9.59112 79.41915,-26.47977 136.66993,-101.4045 136.66993,-189.70346 0,-110.41032 -89.55079,-199.92957 -200,-199.92957 z"
       inkscape:connector-curvature="0"
       style="fill:#000000;fill-opacity:0.3137255" />
  </g>
</svg>
